<svg width="39" height="38" viewBox="0 0 39 38" fill="none" xmlns="http://www.w3.org/2000/svg">
<g filter="url(#filter0_d_2_424)">
<path d="M8.66509 27.2553L17.4874 18.5398L8.66509 9.82427C7.7783 8.94823 7.7783 7.53308 8.66509 6.65703C9.55187 5.78099 10.9844 5.78099 11.8711 6.65703L22.3079 16.9674C23.1947 17.8435 23.1947 19.2586 22.3079 20.1346L11.8711 30.445C10.9844 31.3211 9.55187 31.3211 8.66509 30.445C7.80104 29.569 7.7783 28.1314 8.66509 27.2553Z" fill="white"/>
<path d="M32.1137 9.84673L23.2914 18.5623L32.1137 27.2778C33.0005 28.1538 33.0005 29.569 32.1137 30.445C31.2269 31.3211 29.7944 31.3211 28.9077 30.445L18.4709 20.1346C17.5841 19.2586 17.5841 17.8434 18.4709 16.9674L28.9077 6.65703C29.7944 5.78099 31.2269 5.78099 32.1137 6.65703C32.9778 7.53308 33.0005 8.97069 32.1137 9.84673Z" fill="white"/>
</g>
<defs>
<filter id="filter0_d_2_424" x="4" y="2" width="32.7788" height="33.1021" filterUnits="userSpaceOnUse" color-interpolation-filters="sRGB">
<feFlood flood-opacity="0" result="BackgroundImageFix"/>
<feColorMatrix in="SourceAlpha" type="matrix" values="0 0 0 0 0 0 0 0 0 0 0 0 0 0 0 0 0 0 127 0" result="hardAlpha"/>
<feOffset/>
<feGaussianBlur stdDeviation="2"/>
<feComposite in2="hardAlpha" operator="out"/>
<feColorMatrix type="matrix" values="0 0 0 0 0.244576 0 0 0 0 0.248982 0 0 0 0 0.288636 0 0 0 0.5 0"/>
<feBlend mode="normal" in2="BackgroundImageFix" result="effect1_dropShadow_2_424"/>
<feBlend mode="normal" in="SourceGraphic" in2="effect1_dropShadow_2_424" result="shape"/>
</filter>
</defs>
</svg>
